<mxfile host="app.diagrams.net" agent="Mozilla/5.0 (Macintosh; Intel Mac OS X 10_15_7) AppleWebKit/605.1.15 (KHTML, like Gecko) Version/17.6 Safari/605.1.15" version="24.7.17">
  <diagram id="07fea595-8f29-1299-0266-81d95cde20df" name="Page-1">
    <mxGraphModel dx="4872" dy="1570" grid="1" gridSize="10" guides="1" tooltips="1" connect="1" arrows="1" fold="1" page="1" pageScale="1" pageWidth="1169" pageHeight="827" background="none" math="0" shadow="0">
      <root>
        <mxCell id="0" />
        <mxCell id="1" parent="0" />
        <mxCell id="698" value="" style="rounded=0;whiteSpace=wrap;html=1;shadow=0;labelBackgroundColor=none;strokeColor=none;strokeWidth=3;fillColor=#e8edf0;fontSize=60;fontColor=#2F5B7C;align=left;" parent="1" vertex="1">
          <mxGeometry x="-2290" y="32" width="2250" height="1598" as="geometry" />
        </mxCell>
        <mxCell id="699" value="&lt;div style=&quot;font-size: 26px&quot;&gt;&lt;font style=&quot;font-size: 26px&quot;&gt;Customer Relationships&lt;/font&gt;&lt;/div&gt;&lt;div&gt;&lt;br&gt;&lt;/div&gt;" style="rounded=0;whiteSpace=wrap;html=1;shadow=0;labelBackgroundColor=none;strokeColor=#e8edf0;strokeWidth=5;fillColor=#ffffff;fontSize=12;fontColor=#2F5B7C;align=left;verticalAlign=top;spacing=30;" parent="1" vertex="1">
          <mxGeometry x="-950" y="220" width="420" height="450" as="geometry" />
        </mxCell>
        <mxCell id="700" value="&lt;font&gt;&lt;font style=&quot;font-size: 26px&quot;&gt;Key Partners&lt;/font&gt;&lt;br&gt;&lt;/font&gt;&lt;font style=&quot;font-size: 12px&quot;&gt;&lt;br style=&quot;font-size: 12px&quot;&gt;&lt;br&gt;&lt;/font&gt;&lt;div style=&quot;font-size: 12px&quot;&gt;&lt;br style=&quot;font-size: 12px&quot;&gt;&lt;/div&gt;" style="rounded=0;whiteSpace=wrap;html=1;shadow=0;labelBackgroundColor=none;strokeColor=#e8edf0;strokeWidth=5;fillColor=#ffffff;fontSize=12;fontColor=#2F5B7C;align=left;verticalAlign=top;spacing=30;" parent="1" vertex="1">
          <mxGeometry x="-2210" y="220" width="420" height="900" as="geometry" />
        </mxCell>
        <mxCell id="701" value="&lt;font&gt;&lt;font style=&quot;font-size: 26px&quot;&gt;Key Activities&lt;/font&gt;&lt;br style=&quot;font-size: 12px&quot;&gt;&lt;/font&gt;&lt;font&gt;&lt;br style=&quot;font-size: 12px&quot;&gt;&lt;div&gt;&lt;br&gt;&lt;/div&gt;&lt;/font&gt;&lt;div&gt;&lt;br&gt;&lt;/div&gt;" style="rounded=0;whiteSpace=wrap;html=1;shadow=0;labelBackgroundColor=none;strokeColor=#e8edf0;strokeWidth=5;fillColor=#ffffff;fontSize=12;fontColor=#2F5B7C;align=left;verticalAlign=top;spacing=30;" parent="1" vertex="1">
          <mxGeometry x="-1790" y="220" width="420" height="450" as="geometry" />
        </mxCell>
        <mxCell id="702" value="&lt;div&gt;&lt;font style=&quot;font-size: 26px&quot;&gt;Key Resources&lt;/font&gt;&lt;/div&gt;&lt;div&gt;&lt;br&gt;&lt;/div&gt;&lt;div&gt;&lt;br&gt;&lt;/div&gt;" style="rounded=0;whiteSpace=wrap;html=1;shadow=0;labelBackgroundColor=none;strokeColor=#e8edf0;strokeWidth=5;fillColor=#ffffff;fontSize=12;fontColor=#2F5B7C;align=left;verticalAlign=top;spacing=30;" parent="1" vertex="1">
          <mxGeometry x="-1790" y="670" width="420" height="450" as="geometry" />
        </mxCell>
        <mxCell id="703" value="&lt;div style=&quot;font-size: 26px&quot;&gt;&lt;font style=&quot;font-size: 26px&quot;&gt;Value Propositions&lt;/font&gt;&lt;/div&gt;&lt;div&gt;&lt;br&gt;&lt;/div&gt;&lt;div&gt;&lt;br&gt;&lt;/div&gt;&lt;div style=&quot;font-size: 10px&quot;&gt;&lt;br&gt;&lt;/div&gt;" style="rounded=0;whiteSpace=wrap;html=1;shadow=0;labelBackgroundColor=none;strokeColor=#e8edf0;strokeWidth=5;fillColor=#ffffff;fontSize=12;fontColor=#2F5B7C;align=left;verticalAlign=top;spacing=30;" parent="1" vertex="1">
          <mxGeometry x="-1370" y="220" width="420" height="900" as="geometry" />
        </mxCell>
        <mxCell id="704" value="&lt;div&gt;&lt;font style=&quot;font-size: 26px&quot;&gt;Customer Segments&lt;/font&gt;&lt;/div&gt;&lt;div&gt;&lt;br&gt;&lt;/div&gt;&lt;div&gt;&lt;br&gt;&lt;/div&gt;" style="rounded=0;whiteSpace=wrap;html=1;shadow=0;labelBackgroundColor=none;strokeColor=#e8edf0;strokeWidth=5;fillColor=#ffffff;fontSize=12;fontColor=#2F5B7C;align=left;verticalAlign=top;spacing=30;" parent="1" vertex="1">
          <mxGeometry x="-530" y="220" width="420" height="900" as="geometry" />
        </mxCell>
        <mxCell id="705" value="&lt;div&gt;&lt;font style=&quot;font-size: 26px&quot;&gt;Channels&lt;/font&gt;&lt;/div&gt;&lt;div&gt;&lt;br&gt;&lt;/div&gt;&lt;div style=&quot;font-size: 10px&quot;&gt;&lt;br&gt;&lt;/div&gt;" style="rounded=0;whiteSpace=wrap;html=1;shadow=0;labelBackgroundColor=none;strokeColor=#e8edf0;strokeWidth=5;fillColor=#ffffff;fontSize=12;fontColor=#2F5B7C;align=left;verticalAlign=top;spacing=30;" parent="1" vertex="1">
          <mxGeometry x="-950" y="670" width="420" height="450" as="geometry" />
        </mxCell>
        <mxCell id="706" value="&lt;div style=&quot;font-size: 26px&quot;&gt;&lt;font style=&quot;font-size: 26px&quot;&gt;Cost Structure&lt;/font&gt;&lt;/div&gt;&lt;div&gt;&lt;br&gt;&lt;/div&gt;&lt;div&gt;&lt;br&gt;&lt;/div&gt;" style="rounded=0;whiteSpace=wrap;html=1;shadow=0;labelBackgroundColor=none;strokeColor=#e8edf0;strokeWidth=5;fillColor=#ffffff;fontSize=12;fontColor=#2F5B7C;align=left;verticalAlign=top;spacing=30;" parent="1" vertex="1">
          <mxGeometry x="-2210" y="1120" width="1050" height="330" as="geometry" />
        </mxCell>
        <mxCell id="707" value="&lt;div style=&quot;font-size: 26px&quot;&gt;&lt;font style=&quot;font-size: 26px&quot;&gt;Revenue Streams&lt;/font&gt;&lt;/div&gt;&lt;div&gt;&lt;br&gt;&lt;/div&gt;&lt;div&gt;&lt;br&gt;&lt;/div&gt;" style="rounded=0;whiteSpace=wrap;html=1;shadow=0;labelBackgroundColor=none;strokeColor=#e8edf0;strokeWidth=5;fillColor=#ffffff;fontSize=12;fontColor=#2F5B7C;align=left;verticalAlign=top;spacing=30;" parent="1" vertex="1">
          <mxGeometry x="-1160" y="1120" width="1050" height="330" as="geometry" />
        </mxCell>
        <mxCell id="708" value="The Business Model Canvas&lt;br&gt;" style="text;html=1;resizable=0;points=[];autosize=1;align=left;verticalAlign=top;spacingTop=-4;fontSize=60;fontColor=#2F5B7C;" parent="1" vertex="1">
          <mxGeometry x="-2210" y="110" width="780" height="70" as="geometry" />
        </mxCell>
        <mxCell id="709" value="" style="html=1;verticalLabelPosition=bottom;labelBackgroundColor=#ffffff;verticalAlign=top;shadow=0;dashed=0;strokeWidth=4;shape=mxgraph.ios7.misc.check;strokeColor=#2F5B7C;fillColor=#ffffff;gradientColor=none;fontSize=12;fontColor=#2F5B7C;align=left;" parent="1" vertex="1">
          <mxGeometry x="-1410" y="252" width="20" height="16" as="geometry" />
        </mxCell>
        <mxCell id="710" value="" style="shape=mxgraph.signs.travel.present;html=1;fillColor=#2F5B7C;strokeColor=none;verticalLabelPosition=bottom;verticalAlign=top;align=center;shadow=0;labelBackgroundColor=none;fontSize=12;fontColor=#2F5B7C;" parent="1" vertex="1">
          <mxGeometry x="-1000" y="235" width="31" height="40" as="geometry" />
        </mxCell>
        <mxCell id="711" value="" style="html=1;verticalLabelPosition=bottom;labelBackgroundColor=#ffffff;verticalAlign=top;strokeWidth=3;strokeColor=none;fillColor=#2F5B7C;shadow=0;dashed=0;shape=mxgraph.ios7.icons.heart;fontSize=12;fontColor=#2F5B7C;align=left;" parent="1" vertex="1">
          <mxGeometry x="-594.9999999999997" y="242" width="41" height="36" as="geometry" />
        </mxCell>
        <mxCell id="715" value="" style="shadow=0;dashed=0;html=1;strokeColor=none;labelPosition=center;verticalLabelPosition=bottom;verticalAlign=top;shape=mxgraph.mscae.cloud.data_factory;fillColor=#2F5B7C;labelBackgroundColor=none;fontSize=10;fontColor=#2F5B7C;align=left;" parent="1" vertex="1">
          <mxGeometry x="-1440" y="690" width="50" height="50" as="geometry" />
        </mxCell>
        <mxCell id="716" value="" style="shape=mxgraph.signs.transportation.truck_6;html=1;fillColor=#2F5B7C;strokeColor=none;verticalLabelPosition=bottom;verticalAlign=top;align=center;shadow=0;labelBackgroundColor=none;fontSize=10;fontColor=#2F5B7C;aspect=fixed;" parent="1" vertex="1">
          <mxGeometry x="-590" y="690" width="40" height="50" as="geometry" />
        </mxCell>
        <mxCell id="717" value="" style="shape=image;html=1;verticalAlign=top;verticalLabelPosition=bottom;labelBackgroundColor=#ffffff;imageAspect=0;aspect=fixed;image=https://cdn4.iconfinder.com/data/icons/evil-icons-user-interface/64/price-128.png;shadow=0;strokeColor=#e8edf0;strokeWidth=3;fillColor=#2F5B7C;gradientColor=none;fontSize=10;fontColor=#2F5B7C;align=left;" parent="1" vertex="1">
          <mxGeometry x="-1226" y="1140" width="58" height="58" as="geometry" />
        </mxCell>
        <mxCell id="718" value="" style="dashed=0;html=1;shape=mxgraph.aws3.checklist_cost;fillColor=#2F5B7C;gradientColor=none;shadow=0;labelBackgroundColor=none;strokeColor=none;strokeWidth=3;fontSize=10;fontColor=#2F5B7C;align=left;" parent="1" vertex="1">
          <mxGeometry x="-203.5" y="1131.5" width="67.5" height="75" as="geometry" />
        </mxCell>
        <mxCell id="719" value="" style="shadow=0;dashed=0;html=1;strokeColor=none;fillColor=#2F5B7C;labelPosition=center;verticalLabelPosition=bottom;verticalAlign=top;outlineConnect=0;shape=mxgraph.office.concepts.link;labelBackgroundColor=none;fontSize=10;fontColor=#000000;align=left;" parent="1" vertex="1">
          <mxGeometry x="-1871" y="241" width="61" height="21" as="geometry" />
        </mxCell>
        <mxCell id="720" value="" style="group" parent="1" vertex="1" connectable="0">
          <mxGeometry x="-203.5" y="245" width="69" height="50" as="geometry" />
        </mxCell>
        <mxCell id="721" value="" style="shadow=0;dashed=0;html=1;strokeColor=#FFFFFF;labelPosition=center;verticalLabelPosition=bottom;verticalAlign=top;outlineConnect=0;shape=mxgraph.office.users.user;fillColor=#2F5B7C;labelBackgroundColor=none;fontSize=10;fontColor=#000000;align=left;strokeWidth=2;" parent="720" vertex="1">
          <mxGeometry x="31" y="-5" width="46" height="50" as="geometry" />
        </mxCell>
        <mxCell id="722" value="" style="shadow=0;dashed=0;html=1;strokeColor=#FFFFFF;labelPosition=center;verticalLabelPosition=bottom;verticalAlign=top;outlineConnect=0;shape=mxgraph.office.users.user;fillColor=#2F5B7C;labelBackgroundColor=none;fontSize=10;fontColor=#000000;align=left;strokeWidth=2;" parent="720" vertex="1">
          <mxGeometry width="46" height="50" as="geometry" />
        </mxCell>
        <mxCell id="lHfO0-_1CJrFaC3twcda-722" value="" style="rounded=0;whiteSpace=wrap;html=1;fillColor=#e3c800;strokeColor=#B09500;fontColor=#000000;" vertex="1" parent="1">
          <mxGeometry x="-2150" y="340" width="300" height="120" as="geometry" />
        </mxCell>
        <mxCell id="lHfO0-_1CJrFaC3twcda-723" value="Merino wool farmers &amp;amp; animals&#39; welfare" style="text;html=1;align=center;verticalAlign=middle;whiteSpace=wrap;rounded=0;fontSize=25;" vertex="1" parent="1">
          <mxGeometry x="-2135" y="350" width="270" height="100" as="geometry" />
        </mxCell>
        <mxCell id="lHfO0-_1CJrFaC3twcda-724" value="" style="rounded=0;whiteSpace=wrap;html=1;fillColor=#e3c800;strokeColor=#B09500;fontColor=#000000;" vertex="1" parent="1">
          <mxGeometry x="-2150" y="490" width="300" height="120" as="geometry" />
        </mxCell>
        <mxCell id="lHfO0-_1CJrFaC3twcda-725" value="Advanced &amp;amp; innovative manufacturing method" style="text;html=1;align=center;verticalAlign=middle;whiteSpace=wrap;rounded=0;fontSize=25;" vertex="1" parent="1">
          <mxGeometry x="-2135" y="500" width="270" height="100" as="geometry" />
        </mxCell>
        <mxCell id="lHfO0-_1CJrFaC3twcda-726" value="" style="rounded=0;whiteSpace=wrap;html=1;fillColor=#e3c800;strokeColor=#B09500;fontColor=#000000;" vertex="1" parent="1">
          <mxGeometry x="-2150" y="640" width="300" height="120" as="geometry" />
        </mxCell>
        <mxCell id="lHfO0-_1CJrFaC3twcda-727" value="" style="rounded=0;whiteSpace=wrap;html=1;fillColor=#e3c800;strokeColor=#B09500;fontColor=#000000;" vertex="1" parent="1">
          <mxGeometry x="-2140" y="800" width="300" height="120" as="geometry" />
        </mxCell>
        <mxCell id="lHfO0-_1CJrFaC3twcda-729" value="recycling companies &amp;amp; sustainability organisations" style="text;html=1;align=center;verticalAlign=middle;whiteSpace=wrap;rounded=0;fontSize=25;" vertex="1" parent="1">
          <mxGeometry x="-2155" y="650" width="305" height="100" as="geometry" />
        </mxCell>
        <mxCell id="lHfO0-_1CJrFaC3twcda-730" value="research institutions" style="text;html=1;align=center;verticalAlign=middle;whiteSpace=wrap;rounded=0;fontSize=25;" vertex="1" parent="1">
          <mxGeometry x="-2140" y="840" width="305" height="50" as="geometry" />
        </mxCell>
        <mxCell id="lHfO0-_1CJrFaC3twcda-731" value="" style="rounded=0;whiteSpace=wrap;html=1;fillColor=#e3c800;strokeColor=#B09500;fontColor=#000000;" vertex="1" parent="1">
          <mxGeometry x="-1760" y="510" width="360" height="50" as="geometry" />
        </mxCell>
        <mxCell id="lHfO0-_1CJrFaC3twcda-732" value="" style="rounded=0;whiteSpace=wrap;html=1;fillColor=#e3c800;strokeColor=#B09500;fontColor=#000000;" vertex="1" parent="1">
          <mxGeometry x="-1760" y="390" width="360" height="100" as="geometry" />
        </mxCell>
        <mxCell id="lHfO0-_1CJrFaC3twcda-733" value="" style="rounded=0;whiteSpace=wrap;html=1;fillColor=#e3c800;strokeColor=#B09500;fontColor=#000000;" vertex="1" parent="1">
          <mxGeometry x="-1760" y="295" width="360" height="75" as="geometry" />
        </mxCell>
        <mxCell id="lHfO0-_1CJrFaC3twcda-734" value="" style="rounded=0;whiteSpace=wrap;html=1;fillColor=#e3c800;strokeColor=#B09500;fontColor=#000000;" vertex="1" parent="1">
          <mxGeometry x="-1760" y="580" width="360" height="80" as="geometry" />
        </mxCell>
        <mxCell id="lHfO0-_1CJrFaC3twcda-735" value="R&amp;amp;D for recyclable, biodegradable materials&amp;nbsp;" style="text;html=1;align=center;verticalAlign=middle;whiteSpace=wrap;rounded=0;fontSize=24;" vertex="1" parent="1">
          <mxGeometry x="-1735" y="570" width="305" height="100" as="geometry" />
        </mxCell>
        <mxCell id="lHfO0-_1CJrFaC3twcda-736" value="product lifecycle management,&lt;div&gt;&amp;nbsp;reverse logistics,&lt;/div&gt;&lt;div&gt;recycling&lt;/div&gt;" style="text;html=1;align=center;verticalAlign=middle;whiteSpace=wrap;rounded=0;fontSize=25;" vertex="1" parent="1">
          <mxGeometry x="-1760" y="392" width="365" height="96" as="geometry" />
        </mxCell>
        <mxCell id="lHfO0-_1CJrFaC3twcda-737" value="design, manufacturing, marketing" style="text;html=1;align=center;verticalAlign=middle;whiteSpace=wrap;rounded=0;fontSize=25;" vertex="1" parent="1">
          <mxGeometry x="-1745" y="282.5" width="305" height="100" as="geometry" />
        </mxCell>
        <mxCell id="lHfO0-_1CJrFaC3twcda-738" value="Digital transformation" style="text;html=1;align=center;verticalAlign=middle;whiteSpace=wrap;rounded=0;fontSize=25;" vertex="1" parent="1">
          <mxGeometry x="-1732.5" y="510" width="305" height="50" as="geometry" />
        </mxCell>
        <mxCell id="lHfO0-_1CJrFaC3twcda-739" value="" style="rounded=0;whiteSpace=wrap;html=1;fillColor=#e3c800;strokeColor=#B09500;fontColor=#000000;" vertex="1" parent="1">
          <mxGeometry x="-1750" y="750" width="355" height="50" as="geometry" />
        </mxCell>
        <mxCell id="lHfO0-_1CJrFaC3twcda-740" value="&quot;fibre know-how&quot;" style="text;html=1;align=center;verticalAlign=middle;whiteSpace=wrap;rounded=0;fontSize=25;" vertex="1" parent="1">
          <mxGeometry x="-1725.5" y="750" width="305" height="50" as="geometry" />
        </mxCell>
        <mxCell id="lHfO0-_1CJrFaC3twcda-741" value="" style="rounded=0;whiteSpace=wrap;html=1;fillColor=#e3c800;strokeColor=#B09500;fontColor=#000000;" vertex="1" parent="1">
          <mxGeometry x="-1750" y="960" width="360" height="75" as="geometry" />
        </mxCell>
        <mxCell id="lHfO0-_1CJrFaC3twcda-742" value="" style="rounded=0;whiteSpace=wrap;html=1;fillColor=#e3c800;strokeColor=#B09500;fontColor=#000000;" vertex="1" parent="1">
          <mxGeometry x="-1753" y="820" width="360" height="50" as="geometry" />
        </mxCell>
        <mxCell id="lHfO0-_1CJrFaC3twcda-743" value="" style="rounded=0;whiteSpace=wrap;html=1;fillColor=#e3c800;strokeColor=#B09500;fontColor=#000000;" vertex="1" parent="1">
          <mxGeometry x="-1750" y="890" width="360" height="50" as="geometry" />
        </mxCell>
        <mxCell id="lHfO0-_1CJrFaC3twcda-744" value="the &quot;storytellers&quot;" style="text;html=1;align=center;verticalAlign=middle;whiteSpace=wrap;rounded=0;fontSize=25;" vertex="1" parent="1">
          <mxGeometry x="-1730" y="820" width="305" height="50" as="geometry" />
        </mxCell>
        <mxCell id="lHfO0-_1CJrFaC3twcda-745" value="technology infrastructure" style="text;html=1;align=center;verticalAlign=middle;whiteSpace=wrap;rounded=0;fontSize=25;" vertex="1" parent="1">
          <mxGeometry x="-1735" y="890" width="305" height="50" as="geometry" />
        </mxCell>
        <mxCell id="lHfO0-_1CJrFaC3twcda-746" value="supply chain management" style="text;html=1;align=center;verticalAlign=middle;whiteSpace=wrap;rounded=0;fontSize=25;" vertex="1" parent="1">
          <mxGeometry x="-1725" y="972.5" width="305" height="50" as="geometry" />
        </mxCell>
        <mxCell id="lHfO0-_1CJrFaC3twcda-747" value="&lt;p style=&quot;margin: 0px; font-style: normal; font-variant-caps: normal; font-stretch: normal; line-height: normal; font-size-adjust: none; font-kerning: auto; font-variant-alternates: normal; font-variant-ligatures: normal; font-variant-numeric: normal; font-variant-east-asian: normal; font-variant-position: normal; font-feature-settings: normal; font-optical-sizing: auto; font-variation-settings: normal; font-size: 25px;&quot;&gt;&lt;font style=&quot;font-size: 25px;&quot;&gt;“Natural&amp;nbsp;&lt;/font&gt;performance”&lt;/p&gt;&lt;br/&gt;&lt;p style=&quot;margin: 0px; font-style: normal; font-variant-caps: normal; font-stretch: normal; line-height: normal; font-size-adjust: none; font-kerning: auto; font-variant-alternates: normal; font-variant-ligatures: normal; font-variant-numeric: normal; font-variant-east-asian: normal; font-variant-position: normal; font-feature-settings: normal; font-optical-sizing: auto; font-variation-settings: normal; font-size: 25px;&quot;&gt;&lt;font style=&quot;font-size: 25px;&quot;&gt;based on&amp;nbsp;&lt;/font&gt;wool fibres&lt;/p&gt;" style="rounded=0;whiteSpace=wrap;html=1;fillColor=#e3c800;strokeColor=#B09500;fontColor=#000000;" vertex="1" parent="1">
          <mxGeometry x="-1310" y="330" width="300" height="120" as="geometry" />
        </mxCell>
        <mxCell id="lHfO0-_1CJrFaC3twcda-748" value="&lt;p style=&quot;margin: 0px; font-style: normal; font-variant-caps: normal; font-stretch: normal; line-height: normal; font-size-adjust: none; font-kerning: auto; font-variant-alternates: normal; font-variant-ligatures: normal; font-variant-numeric: normal; font-variant-east-asian: normal; font-variant-position: normal; font-feature-settings: normal; font-optical-sizing: auto; font-variation-settings: normal; font-size: 26px;&quot;&gt;&lt;font style=&quot;font-size: 26px;&quot;&gt;&lt;span style=&quot;font-style: normal; font-variant-caps: normal; font-stretch: normal; line-height: normal; font-family: Arial; font-size-adjust: none; font-kerning: auto; font-variant-alternates: normal; font-variant-ligatures: normal; font-variant-numeric: normal; font-variant-east-asian: normal; font-variant-position: normal; font-feature-settings: normal; font-optical-sizing: auto; font-variation-settings: normal;&quot;&gt;• &lt;/span&gt;No odour&lt;/font&gt;&lt;/p&gt;&lt;p style=&quot;margin: 0px; font-style: normal; font-variant-caps: normal; font-stretch: normal; line-height: normal; font-size-adjust: none; font-kerning: auto; font-variant-alternates: normal; font-variant-ligatures: normal; font-variant-numeric: normal; font-variant-east-asian: normal; font-variant-position: normal; font-feature-settings: normal; font-optical-sizing: auto; font-variation-settings: normal; font-size: 26px;&quot;&gt;&lt;font style=&quot;font-size: 26px;&quot;&gt;&lt;span style=&quot;font-style: normal; font-variant-caps: normal; font-stretch: normal; line-height: normal; font-family: Arial; font-size-adjust: none; font-kerning: auto; font-variant-alternates: normal; font-variant-ligatures: normal; font-variant-numeric: normal; font-variant-east-asian: normal; font-variant-position: normal; font-variant-emoji: normal; font-feature-settings: normal; font-optical-sizing: auto; font-variation-settings: normal;&quot;&gt;• &lt;/span&gt;Regulates temp&lt;/font&gt;&lt;/p&gt;&lt;p style=&quot;margin: 0px; font-style: normal; font-variant-caps: normal; font-stretch: normal; line-height: normal; font-size-adjust: none; font-kerning: auto; font-variant-alternates: normal; font-variant-ligatures: normal; font-variant-numeric: normal; font-variant-east-asian: normal; font-variant-position: normal; font-feature-settings: normal; font-optical-sizing: auto; font-variation-settings: normal; font-size: 26px;&quot;&gt;&lt;font style=&quot;font-size: 26px;&quot;&gt;&lt;span style=&quot;font-style: normal; font-variant-caps: normal; font-stretch: normal; line-height: normal; font-family: Arial; font-size-adjust: none; font-kerning: auto; font-variant-alternates: normal; font-variant-ligatures: normal; font-variant-numeric: normal; font-variant-east-asian: normal; font-variant-position: normal; font-variant-emoji: normal; font-feature-settings: normal; font-optical-sizing: auto; font-variation-settings: normal;&quot;&gt;• &lt;/span&gt;Light&lt;/font&gt;&lt;/p&gt;&lt;p style=&quot;margin: 0px; font-style: normal; font-variant-caps: normal; font-stretch: normal; line-height: normal; font-size-adjust: none; font-kerning: auto; font-variant-alternates: normal; font-variant-ligatures: normal; font-variant-numeric: normal; font-variant-east-asian: normal; font-variant-position: normal; font-feature-settings: normal; font-optical-sizing: auto; font-variation-settings: normal; font-size: 26px;&quot;&gt;&lt;font style=&quot;font-size: 26px;&quot;&gt;&lt;span style=&quot;font-style: normal; font-variant-caps: normal; font-stretch: normal; line-height: normal; font-family: Arial; font-size-adjust: none; font-kerning: auto; font-variant-alternates: normal; font-variant-ligatures: normal; font-variant-numeric: normal; font-variant-east-asian: normal; font-variant-position: normal; font-variant-emoji: normal; font-feature-settings: normal; font-optical-sizing: auto; font-variation-settings: normal;&quot;&gt;• &lt;/span&gt;Feels good&lt;/font&gt;&lt;/p&gt;&lt;p style=&quot;margin: 0px; font-style: normal; font-variant-caps: normal; font-stretch: normal; line-height: normal; font-size-adjust: none; font-kerning: auto; font-variant-alternates: normal; font-variant-ligatures: normal; font-variant-numeric: normal; font-variant-east-asian: normal; font-variant-position: normal; font-feature-settings: normal; font-optical-sizing: auto; font-variation-settings: normal; font-size: 26px;&quot;&gt;&lt;font style=&quot;font-size: 26px;&quot;&gt;&lt;span style=&quot;font-style: normal; font-variant-caps: normal; font-stretch: normal; line-height: normal; font-family: Arial; font-size-adjust: none; font-kerning: auto; font-variant-alternates: normal; font-variant-ligatures: normal; font-variant-numeric: normal; font-variant-east-asian: normal; font-variant-position: normal; font-feature-settings: normal; font-optical-sizing: auto; font-variation-settings: normal;&quot;&gt;• &lt;/span&gt;Durable&lt;/font&gt;&lt;/p&gt;" style="rounded=0;whiteSpace=wrap;html=1;fillColor=#e3c800;strokeColor=#B09500;fontColor=#000000;align=center;" vertex="1" parent="1">
          <mxGeometry x="-1310" y="475" width="300" height="355" as="geometry" />
        </mxCell>
        <mxCell id="lHfO0-_1CJrFaC3twcda-749" value="&lt;p style=&quot;margin: 0px; font-style: normal; font-variant-caps: normal; font-stretch: normal; line-height: normal; font-size-adjust: none; font-kerning: auto; font-variant-alternates: normal; font-variant-ligatures: normal; font-variant-numeric: normal; font-variant-east-asian: normal; font-variant-position: normal; font-feature-settings: normal; font-optical-sizing: auto; font-variation-settings: normal; font-size: 25px;&quot;&gt;sustainability at the&lt;/p&gt;&lt;p style=&quot;margin: 0px; font-style: normal; font-variant-caps: normal; font-stretch: normal; line-height: normal; font-size-adjust: none; font-kerning: auto; font-variant-alternates: normal; font-variant-ligatures: normal; font-variant-numeric: normal; font-variant-east-asian: normal; font-variant-position: normal; font-feature-settings: normal; font-optical-sizing: auto; font-variation-settings: normal; font-size: 25px;&quot;&gt;&amp;nbsp;end-of-life stage&lt;/p&gt;" style="rounded=0;whiteSpace=wrap;html=1;fillColor=#e3c800;strokeColor=#B09500;fontColor=#000000;" vertex="1" parent="1">
          <mxGeometry x="-1300" y="937.5" width="300" height="120" as="geometry" />
        </mxCell>
        <mxCell id="lHfO0-_1CJrFaC3twcda-751" value="&lt;p style=&quot;margin: 0px; font-style: normal; font-variant-caps: normal; font-stretch: normal; line-height: normal; font-size-adjust: none; font-kerning: auto; font-variant-alternates: normal; font-variant-ligatures: normal; font-variant-numeric: normal; font-variant-east-asian: normal; font-variant-position: normal; font-feature-settings: normal; font-optical-sizing: auto; font-variation-settings: normal; font-size: 25px;&quot;&gt;retail stores&lt;/p&gt;" style="rounded=0;whiteSpace=wrap;html=1;fillColor=#e3c800;strokeColor=#B09500;fontColor=#000000;" vertex="1" parent="1">
          <mxGeometry x="-920" y="810" width="360" height="50" as="geometry" />
        </mxCell>
        <mxCell id="lHfO0-_1CJrFaC3twcda-752" value="&lt;p style=&quot;margin: 0px; font-style: normal; font-variant-caps: normal; font-stretch: normal; line-height: normal; font-size-adjust: none; font-kerning: auto; font-variant-alternates: normal; font-variant-ligatures: normal; font-variant-numeric: normal; font-variant-east-asian: normal; font-variant-position: normal; font-feature-settings: normal; font-optical-sizing: auto; font-variation-settings: normal; font-size: 25px;&quot;&gt;&lt;font style=&quot;font-size: 25px;&quot;&gt;Traceability/&lt;/font&gt;Baacode&lt;/p&gt;" style="rounded=0;whiteSpace=wrap;html=1;fillColor=#e3c800;strokeColor=#B09500;fontColor=#000000;" vertex="1" parent="1">
          <mxGeometry x="-895" y="420" width="300" height="60" as="geometry" />
        </mxCell>
        <mxCell id="lHfO0-_1CJrFaC3twcda-753" value="&lt;p style=&quot;margin: 0px; font-style: normal; font-variant-caps: normal; font-stretch: normal; line-height: normal; font-size-adjust: none; font-kerning: auto; font-variant-alternates: normal; font-variant-ligatures: normal; font-variant-numeric: normal; font-variant-east-asian: normal; font-variant-position: normal; font-feature-settings: normal; font-optical-sizing: auto; font-variation-settings: normal; font-size: 24px;&quot;&gt;&lt;font style=&quot;font-size: 24px;&quot;&gt;Icebreaker retail&lt;/font&gt;&lt;/p&gt;&lt;p style=&quot;margin: 0px; font-style: normal; font-variant-caps: normal; font-stretch: normal; line-height: normal; font-size-adjust: none; font-kerning: auto; font-variant-alternates: normal; font-variant-ligatures: normal; font-variant-numeric: normal; font-variant-east-asian: normal; font-variant-position: normal; font-feature-settings: normal; font-optical-sizing: auto; font-variation-settings: normal; font-size: 24px;&quot;&gt;&lt;font style=&quot;font-size: 24px;&quot;&gt;store experience&lt;/font&gt;&lt;/p&gt;" style="rounded=0;whiteSpace=wrap;html=1;fillColor=#e3c800;strokeColor=#B09500;fontColor=#000000;" vertex="1" parent="1">
          <mxGeometry x="-895" y="310" width="300" height="90" as="geometry" />
        </mxCell>
        <mxCell id="lHfO0-_1CJrFaC3twcda-754" value="&lt;p style=&quot;margin: 0px; font-style: normal; font-variant-caps: normal; font-stretch: normal; line-height: normal; font-size-adjust: none; font-kerning: auto; font-variant-alternates: normal; font-variant-ligatures: normal; font-variant-numeric: normal; font-variant-east-asian: normal; font-variant-position: normal; font-feature-settings: normal; font-optical-sizing: auto; font-variation-settings: normal; font-size: 25px;&quot;&gt;take-back programs&lt;/p&gt;" style="rounded=0;whiteSpace=wrap;html=1;fillColor=#e3c800;strokeColor=#B09500;fontColor=#000000;fontStyle=0" vertex="1" parent="1">
          <mxGeometry x="-890" y="505" width="300" height="60" as="geometry" />
        </mxCell>
        <mxCell id="lHfO0-_1CJrFaC3twcda-755" value="&lt;p style=&quot;margin: 0px; font-style: normal; font-variant-caps: normal; font-stretch: normal; line-height: normal; font-size-adjust: none; font-kerning: auto; font-variant-alternates: normal; font-variant-ligatures: normal; font-variant-numeric: normal; font-variant-east-asian: normal; font-variant-position: normal; font-feature-settings: normal; font-optical-sizing: auto; font-variation-settings: normal; font-size: 25px;&quot;&gt;educational initiatives&lt;/p&gt;" style="rounded=0;whiteSpace=wrap;html=1;fillColor=#e3c800;strokeColor=#B09500;fontColor=#000000;" vertex="1" parent="1">
          <mxGeometry x="-890" y="590" width="300" height="60" as="geometry" />
        </mxCell>
        <mxCell id="lHfO0-_1CJrFaC3twcda-757" value="&lt;p style=&quot;margin: 0px; font-style: normal; font-variant-caps: normal; font-stretch: normal; line-height: normal; font-size-adjust: none; font-kerning: auto; font-variant-alternates: normal; font-variant-ligatures: normal; font-variant-numeric: normal; font-variant-east-asian: normal; font-variant-position: normal; font-feature-settings: normal; font-optical-sizing: auto; font-variation-settings: normal; font-size: 25px;&quot;&gt;e-commerce&lt;/p&gt;" style="rounded=0;whiteSpace=wrap;html=1;fillColor=#e3c800;strokeColor=#B09500;fontColor=#000000;" vertex="1" parent="1">
          <mxGeometry x="-920" y="750" width="360" height="50" as="geometry" />
        </mxCell>
        <mxCell id="lHfO0-_1CJrFaC3twcda-758" value="&lt;p style=&quot;margin: 0px; font-style: normal; font-variant-caps: normal; font-stretch: normal; line-height: normal; font-size-adjust: none; font-kerning: auto; font-variant-alternates: normal; font-variant-ligatures: normal; font-variant-numeric: normal; font-variant-east-asian: normal; font-variant-position: normal; font-feature-settings: normal; font-optical-sizing: auto; font-variation-settings: normal; font-size: 25px;&quot;&gt;online platforms for reselling or renting&lt;/p&gt;" style="rounded=0;whiteSpace=wrap;html=1;fillColor=#e3c800;strokeColor=#B09500;fontColor=#000000;" vertex="1" parent="1">
          <mxGeometry x="-920" y="880" width="360" height="90" as="geometry" />
        </mxCell>
        <mxCell id="lHfO0-_1CJrFaC3twcda-759" value="&lt;p style=&quot;margin: 0px; font-style: normal; font-variant-caps: normal; font-stretch: normal; line-height: normal; font-size-adjust: none; font-kerning: auto; font-variant-alternates: normal; font-variant-ligatures: normal; font-variant-numeric: normal; font-variant-east-asian: normal; font-variant-position: normal; font-feature-settings: normal; font-optical-sizing: auto; font-variation-settings: normal; font-size: 25px;&quot;&gt;in-store collection point&lt;/p&gt;" style="rounded=0;whiteSpace=wrap;html=1;fillColor=#e3c800;strokeColor=#B09500;fontColor=#000000;" vertex="1" parent="1">
          <mxGeometry x="-920" y="990" width="366" height="70" as="geometry" />
        </mxCell>
        <mxCell id="lHfO0-_1CJrFaC3twcda-760" value="&lt;p style=&quot;margin: 0px; font-style: normal; font-variant-caps: normal; font-stretch: normal; line-height: normal; font-size-adjust: none; font-kerning: auto; font-variant-alternates: normal; font-variant-ligatures: normal; font-variant-numeric: normal; font-variant-east-asian: normal; font-variant-position: normal; font-feature-settings: normal; font-optical-sizing: auto; font-variation-settings: normal; font-size: 25px;&quot;&gt;local &amp;amp; overseas outdoor stores&lt;/p&gt;" style="rounded=0;whiteSpace=wrap;html=1;fillColor=#e3c800;strokeColor=#B09500;fontColor=#000000;" vertex="1" parent="1">
          <mxGeometry x="-480" y="480" width="300" height="320" as="geometry" />
        </mxCell>
        <mxCell id="lHfO0-_1CJrFaC3twcda-761" value="&lt;p style=&quot;margin: 0px; font-style: normal; font-variant-caps: normal; font-stretch: normal; line-height: normal; font-size-adjust: none; font-kerning: auto; font-variant-alternates: normal; font-variant-ligatures: normal; font-variant-numeric: normal; font-variant-east-asian: normal; font-variant-position: normal; font-feature-settings: normal; font-optical-sizing: auto; font-variation-settings: normal; font-size: 25px;&quot;&gt;outdoor enthusiasts&lt;/p&gt;" style="rounded=0;whiteSpace=wrap;html=1;fillColor=#e3c800;strokeColor=#B09500;fontColor=#000000;" vertex="1" parent="1">
          <mxGeometry x="-480" y="330" width="300" height="120" as="geometry" />
        </mxCell>
        <mxCell id="lHfO0-_1CJrFaC3twcda-762" value="&lt;p style=&quot;margin: 0px; font-style: normal; font-variant-caps: normal; font-stretch: normal; line-height: normal; font-size-adjust: none; font-kerning: auto; font-variant-alternates: normal; font-variant-ligatures: normal; font-variant-numeric: normal; font-variant-east-asian: normal; font-variant-position: normal; font-feature-settings: normal; font-optical-sizing: auto; font-variation-settings: normal; font-size: 25px;&quot;&gt;eco-conscious costumers&lt;/p&gt;" style="rounded=0;whiteSpace=wrap;html=1;fillColor=#e3c800;strokeColor=#B09500;fontColor=#000000;" vertex="1" parent="1">
          <mxGeometry x="-480" y="840" width="300" height="120" as="geometry" />
        </mxCell>
        <mxCell id="lHfO0-_1CJrFaC3twcda-765" value="&lt;p style=&quot;margin: 0px; font-style: normal; font-variant-caps: normal; font-stretch: normal; line-height: normal; font-size-adjust: none; font-kerning: auto; font-variant-alternates: normal; font-variant-ligatures: normal; font-variant-numeric: normal; font-variant-east-asian: normal; font-variant-position: normal; font-feature-settings: normal; font-optical-sizing: auto; font-variation-settings: normal; font-size: 23px;&quot;&gt;&lt;font style=&quot;font-size: 23px;&quot;&gt;Manufacturing&amp;nbsp;&lt;/font&gt;&amp;amp; inventory&lt;/p&gt;" style="rounded=0;whiteSpace=wrap;html=1;fillColor=#e3c800;strokeColor=#B09500;fontColor=#000000;" vertex="1" parent="1">
          <mxGeometry x="-2182.5" y="1206.5" width="360" height="63.5" as="geometry" />
        </mxCell>
        <mxCell id="lHfO0-_1CJrFaC3twcda-766" value="&lt;p style=&quot;margin: 0px; font-style: normal; font-variant-caps: normal; font-stretch: normal; line-height: normal; font-size-adjust: none; font-kerning: auto; font-variant-alternates: normal; font-variant-ligatures: normal; font-variant-numeric: normal; font-variant-east-asian: normal; font-variant-position: normal; font-feature-settings: normal; font-optical-sizing: auto; font-variation-settings: normal; font-size: 23px;&quot;&gt;Rent/maintenance/training&lt;/p&gt;" style="rounded=0;whiteSpace=wrap;html=1;fillColor=#e3c800;strokeColor=#B09500;fontColor=#000000;" vertex="1" parent="1">
          <mxGeometry x="-2182.5" y="1360" width="360" height="63.5" as="geometry" />
        </mxCell>
        <mxCell id="lHfO0-_1CJrFaC3twcda-767" value="&lt;p style=&quot;margin: 0px; font-style: normal; font-variant-caps: normal; font-stretch: normal; line-height: normal; font-size-adjust: none; font-kerning: auto; font-variant-alternates: normal; font-variant-ligatures: normal; font-variant-numeric: normal; font-variant-east-asian: normal; font-variant-position: normal; font-feature-settings: normal; font-optical-sizing: auto; font-variation-settings: normal; font-size: 23px;&quot;&gt;MKT/branding&lt;/p&gt;" style="rounded=0;whiteSpace=wrap;html=1;fillColor=#e3c800;strokeColor=#B09500;fontColor=#000000;" vertex="1" parent="1">
          <mxGeometry x="-1772.5" y="1200" width="360" height="63.5" as="geometry" />
        </mxCell>
        <mxCell id="lHfO0-_1CJrFaC3twcda-768" value="&lt;p style=&quot;margin: 0px; font-style: normal; font-variant-caps: normal; font-stretch: normal; line-height: normal; font-size-adjust: none; font-kerning: auto; font-variant-alternates: normal; font-variant-ligatures: normal; font-variant-numeric: normal; font-variant-east-asian: normal; font-variant-position: normal; font-feature-settings: normal; font-optical-sizing: auto; font-variation-settings: normal; font-size: 23px;&quot;&gt;Overheads &amp;amp; distribution&lt;/p&gt;" style="rounded=0;whiteSpace=wrap;html=1;fillColor=#e3c800;strokeColor=#B09500;fontColor=#000000;" vertex="1" parent="1">
          <mxGeometry x="-2182.5" y="1280" width="360" height="63.5" as="geometry" />
        </mxCell>
        <mxCell id="lHfO0-_1CJrFaC3twcda-769" value="&lt;p style=&quot;margin: 0px; font-style: normal; font-variant-caps: normal; font-stretch: normal; line-height: normal; font-size-adjust: none; font-kerning: auto; font-variant-alternates: normal; font-variant-ligatures: normal; font-variant-numeric: normal; font-variant-east-asian: normal; font-variant-position: normal; font-feature-settings: normal; font-optical-sizing: auto; font-variation-settings: normal; font-size: 23px;&quot;&gt;R&amp;amp;D&lt;/p&gt;" style="rounded=0;whiteSpace=wrap;html=1;fillColor=#e3c800;strokeColor=#B09500;fontColor=#000000;" vertex="1" parent="1">
          <mxGeometry x="-1772.5" y="1280" width="362.5" height="63.5" as="geometry" />
        </mxCell>
        <mxCell id="lHfO0-_1CJrFaC3twcda-770" value="&lt;p style=&quot;margin: 0px; font-style: normal; font-variant-caps: normal; font-stretch: normal; line-height: normal; font-size-adjust: none; font-kerning: auto; font-variant-alternates: normal; font-variant-ligatures: normal; font-variant-numeric: normal; font-variant-east-asian: normal; font-variant-position: normal; font-feature-settings: normal; font-optical-sizing: auto; font-variation-settings: normal; font-size: 23px;&quot;&gt;reverse logistics&lt;/p&gt;" style="rounded=0;whiteSpace=wrap;html=1;fillColor=#e3c800;strokeColor=#B09500;fontColor=#000000;" vertex="1" parent="1">
          <mxGeometry x="-1772.5" y="1360" width="360" height="63.5" as="geometry" />
        </mxCell>
        <mxCell id="lHfO0-_1CJrFaC3twcda-771" value="&lt;p style=&quot;margin: 0px; font-style: normal; font-variant-caps: normal; font-stretch: normal; line-height: normal; font-size-adjust: none; font-kerning: auto; font-variant-alternates: normal; font-variant-ligatures: normal; font-variant-numeric: normal; font-variant-east-asian: normal; font-variant-position: normal; font-feature-settings: normal; font-optical-sizing: auto; font-variation-settings: normal; font-size: 23px;&quot;&gt;material&lt;/p&gt;&lt;p style=&quot;margin: 0px; font-style: normal; font-variant-caps: normal; font-stretch: normal; line-height: normal; font-size-adjust: none; font-kerning: auto; font-variant-alternates: normal; font-variant-ligatures: normal; font-variant-numeric: normal; font-variant-east-asian: normal; font-variant-position: normal; font-feature-settings: normal; font-optical-sizing: auto; font-variation-settings: normal; font-size: 23px;&quot;&gt;recovery systems&lt;/p&gt;" style="rounded=0;whiteSpace=wrap;html=1;fillColor=#e3c800;strokeColor=#B09500;fontColor=#000000;" vertex="1" parent="1">
          <mxGeometry x="-1380" y="1220" width="180" height="160" as="geometry" />
        </mxCell>
        <mxCell id="lHfO0-_1CJrFaC3twcda-772" value="&lt;p style=&quot;margin: 0px; font-style: normal; font-variant-caps: normal; font-stretch: normal; line-height: normal; font-size-adjust: none; font-kerning: auto; font-variant-alternates: normal; font-variant-ligatures: normal; font-variant-numeric: normal; font-variant-east-asian: normal; font-variant-position: normal; font-feature-settings: normal; font-optical-sizing: auto; font-variation-settings: normal; font-size: 23px;&quot;&gt;online sales&lt;/p&gt;" style="rounded=0;whiteSpace=wrap;html=1;fillColor=#e3c800;strokeColor=#B09500;fontColor=#000000;" vertex="1" parent="1">
          <mxGeometry x="-1120" y="1360" width="180" height="60" as="geometry" />
        </mxCell>
        <mxCell id="lHfO0-_1CJrFaC3twcda-773" value="&lt;p style=&quot;margin: 0px; font-style: normal; font-variant-caps: normal; font-stretch: normal; line-height: normal; font-size-adjust: none; font-kerning: auto; font-variant-alternates: normal; font-variant-ligatures: normal; font-variant-numeric: normal; font-variant-east-asian: normal; font-variant-position: normal; font-feature-settings: normal; font-optical-sizing: auto; font-variation-settings: normal; font-size: 23px;&quot;&gt;DTC&lt;/p&gt;" style="rounded=0;whiteSpace=wrap;html=1;fillColor=#e3c800;strokeColor=#B09500;fontColor=#000000;" vertex="1" parent="1">
          <mxGeometry x="-1120" y="1280" width="180" height="60" as="geometry" />
        </mxCell>
        <mxCell id="lHfO0-_1CJrFaC3twcda-774" value="&lt;p style=&quot;margin: 0px; font-style: normal; font-variant-caps: normal; font-stretch: normal; line-height: normal; font-size-adjust: none; font-kerning: auto; font-variant-alternates: normal; font-variant-ligatures: normal; font-variant-numeric: normal; font-variant-east-asian: normal; font-variant-position: normal; font-feature-settings: normal; font-optical-sizing: auto; font-variation-settings: normal; font-size: 23px;&quot;&gt;&lt;font style=&quot;font-size: 23px;&quot;&gt;Wholesale&lt;/font&gt;&lt;/p&gt;" style="rounded=0;whiteSpace=wrap;html=1;fillColor=#e3c800;strokeColor=#B09500;fontColor=#000000;" vertex="1" parent="1">
          <mxGeometry x="-1120" y="1203.5" width="180" height="60" as="geometry" />
        </mxCell>
        <mxCell id="lHfO0-_1CJrFaC3twcda-775" value="&lt;p style=&quot;margin: 0px; font-style: normal; font-variant-caps: normal; font-stretch: normal; line-height: normal; font-size-adjust: none; font-kerning: auto; font-variant-alternates: normal; font-variant-ligatures: normal; font-variant-numeric: normal; font-variant-east-asian: normal; font-variant-position: normal; font-feature-settings: normal; font-optical-sizing: auto; font-variation-settings: normal; font-size: 23px;&quot;&gt;&lt;font style=&quot;font-size: 23px;&quot;&gt;take-back programs&lt;/font&gt;&lt;/p&gt;" style="rounded=0;whiteSpace=wrap;html=1;fillColor=#e3c800;strokeColor=#B09500;fontColor=#000000;" vertex="1" parent="1">
          <mxGeometry x="-890" y="1283.5" width="330" height="60" as="geometry" />
        </mxCell>
        <mxCell id="lHfO0-_1CJrFaC3twcda-776" value="&lt;p style=&quot;margin: 0px; font-style: normal; font-variant-caps: normal; font-stretch: normal; line-height: normal; font-size-adjust: none; font-kerning: auto; font-variant-alternates: normal; font-variant-ligatures: normal; font-variant-numeric: normal; font-variant-east-asian: normal; font-variant-position: normal; font-feature-settings: normal; font-optical-sizing: auto; font-variation-settings: normal; font-size: 23px;&quot;&gt;&lt;font style=&quot;font-size: 23px;&quot;&gt;recycled meterials&lt;/font&gt;&lt;/p&gt;" style="rounded=0;whiteSpace=wrap;html=1;fillColor=#e3c800;strokeColor=#B09500;fontColor=#000000;" vertex="1" parent="1">
          <mxGeometry x="-890" y="1200" width="330" height="60" as="geometry" />
        </mxCell>
        <mxCell id="lHfO0-_1CJrFaC3twcda-777" value="&lt;p style=&quot;margin: 0px; font-style: normal; font-variant-caps: normal; font-stretch: normal; line-height: normal; font-size-adjust: none; font-kerning: auto; font-variant-alternates: normal; font-variant-ligatures: normal; font-variant-numeric: normal; font-variant-east-asian: normal; font-variant-position: normal; font-feature-settings: normal; font-optical-sizing: auto; font-variation-settings: normal; font-size: 23px;&quot;&gt;&lt;font style=&quot;font-size: 23px;&quot;&gt;rental service&lt;/font&gt;&lt;/p&gt;" style="rounded=0;whiteSpace=wrap;html=1;fillColor=#e3c800;strokeColor=#B09500;fontColor=#000000;" vertex="1" parent="1">
          <mxGeometry x="-890" y="1363.5" width="330" height="60" as="geometry" />
        </mxCell>
      </root>
    </mxGraphModel>
  </diagram>
</mxfile>
